<svg xmlns="http://www.w3.org/2000/svg" width="207.637" height="44.141" viewBox="0 0 207.637 44.141">
  <g id="Group_308" data-name="Group 308" transform="translate(0 -0.431)">
    <circle id="Ellipse_39" data-name="Ellipse 39" cx="8.913" cy="8.913" r="8.913" transform="translate(0 26.747)" fill="#fff"/>
    <g id="Group_130" data-name="Group 130" transform="translate(121.35 1.576)">
      <path id="Path_342" data-name="Path 342" d="M132.029,12.1h-1.861l-.588-2.351h-3.33l-.588,2.351H123.9l2.84-9.7h2.546Zm-4.114-8.521-1.273,4.6h2.449Z" transform="translate(-123.9 -1.616)" fill="#fff"/>
      <path id="Path_343" data-name="Path 343" d="M136.034,6.205v5.779h-1.763V6.205H132.9V5.03l1.371-.2v-.49a3.154,3.154,0,0,1,.686-1.959,2.525,2.525,0,0,1,1.959-.686,1.667,1.667,0,0,1,.686.1,1.816,1.816,0,0,1,.686.2l-.294,1.371c-.2,0-.294-.1-.49-.1h-.49c-.392,0-.686.1-.784.294a1.3,1.3,0,0,0-.294.979v.392H137.9V6.4l-1.861-.2Z" transform="translate(-124.085 -1.602)" fill="#fff"/>
      <path id="Path_344" data-name="Path 344" d="M141.763,6.849v5.191H140V4.6h1.665v.979a3.727,3.727,0,0,1,1.273-.881,3.457,3.457,0,0,1,1.371-.294V6.163a5.105,5.105,0,0,0-1.371.2A5.991,5.991,0,0,0,141.763,6.849Z" transform="translate(-124.231 -1.658)" fill="#fff"/>
      <path id="Path_345" data-name="Path 345" d="M147.955,2.579a.763.763,0,0,1-.294.686,1.46,1.46,0,0,1-.784.294,1.112,1.112,0,0,1-.784-.294.889.889,0,0,1-.294-.686.762.762,0,0,1,.294-.686.964.964,0,0,1,.784-.294,1.112,1.112,0,0,1,.784.294A.889.889,0,0,1,147.955,2.579Zm-1.861,1.959h1.763V12.08h-1.763Z" transform="translate(-124.351 -1.6)" fill="#fff"/>
      <path id="Path_346" data-name="Path 346" d="M152.928,12.235a3.269,3.269,0,0,1-2.644-.979,4.066,4.066,0,0,1-.784-2.938,4.387,4.387,0,0,1,.881-2.938,3.186,3.186,0,0,1,2.547-.979,4.391,4.391,0,0,1,2.253.49l-.588,1.371a6.748,6.748,0,0,1-.784-.294,1.912,1.912,0,0,0-.686-.1,1.644,1.644,0,0,0-1.371.588,2.945,2.945,0,0,0-.392,1.763,2.945,2.945,0,0,0,.392,1.763,1.591,1.591,0,0,0,1.371.49,2.157,2.157,0,0,0,.784-.1,2.56,2.56,0,0,0,.784-.294l.49,1.371a3.509,3.509,0,0,1-1.077.392A1.439,1.439,0,0,1,152.928,12.235Z" transform="translate(-124.427 -1.658)" fill="#fff"/>
      <path id="Path_347" data-name="Path 347" d="M162.672,7.24v4.8h-1.665v-.784a2.984,2.984,0,0,1-.979.686,2.608,2.608,0,0,1-1.175.294,2.3,2.3,0,0,1-1.665-.588,2.224,2.224,0,0,1-.588-1.567,2.363,2.363,0,0,1,.686-1.665,2.924,2.924,0,0,1,1.959-.588h1.665v-.49a1.759,1.759,0,0,0-.294-1.077,1.575,1.575,0,0,0-1.077-.294,3.332,3.332,0,0,0-.979.1,10.983,10.983,0,0,0-1.273.49L156.7,5.184a6.262,6.262,0,0,1,1.567-.588,7.56,7.56,0,0,1,1.469-.2,2.857,2.857,0,0,1,2.155.686A2.806,2.806,0,0,1,162.672,7.24Zm-4.407,2.742a.763.763,0,0,0,.294.686.964.964,0,0,0,.784.294,1.845,1.845,0,0,0,.784-.2,1.523,1.523,0,0,0,.784-.588V9.1h-1.567a1.266,1.266,0,0,0-.784.2A1.119,1.119,0,0,0,158.265,9.983Z" transform="translate(-124.573 -1.658)" fill="#fff"/>
      <path id="Path_348" data-name="Path 348" d="M166.363,6.849v5.289H164.6V4.6h1.665v.881a2.747,2.747,0,0,1,1.175-.784,2.608,2.608,0,0,1,1.175-.294,2.018,2.018,0,0,1,1.665.686,2.651,2.651,0,0,1,.588,1.861v5.093h-1.763V7.24a1.2,1.2,0,0,0-.294-.881.964.964,0,0,0-.784-.294,2.86,2.86,0,0,0-.882.2C167.049,6.457,166.755,6.555,166.363,6.849Z" transform="translate(-124.738 -1.658)" fill="#fff"/>
      <path id="Path_349" data-name="Path 349" d="M126.365,20.351V27.7H124.7V18h2.155l2.449,5.289L131.654,18h2.057v9.7h-1.665V20.351l-2.155,4.6h-1.469Z" transform="translate(-123.916 -1.938)" fill="#fff"/>
      <path id="Path_350" data-name="Path 350" d="M142.172,22.842v4.8h-1.665v-.784a2.985,2.985,0,0,1-.979.686,2.608,2.608,0,0,1-1.175.294,2.3,2.3,0,0,1-1.665-.588,2.224,2.224,0,0,1-.588-1.567,2.363,2.363,0,0,1,.686-1.665,3.108,3.108,0,0,1,1.959-.588h1.665v-.392a1.76,1.76,0,0,0-.294-1.077c-.2-.294-.588-.294-1.077-.294a3.332,3.332,0,0,0-.979.1,10.985,10.985,0,0,0-1.273.49l-.588-1.371a6.261,6.261,0,0,1,1.567-.588,7.56,7.56,0,0,1,1.469-.2,2.858,2.858,0,0,1,2.155.686A2.806,2.806,0,0,1,142.172,22.842Zm-4.505,2.742a.763.763,0,0,0,.294.686.964.964,0,0,0,.784.294,1.845,1.845,0,0,0,.784-.2,1.523,1.523,0,0,0,.784-.588V24.7h-1.567a1.266,1.266,0,0,0-.784.2A.763.763,0,0,0,137.667,25.585Z" transform="translate(-124.151 -1.981)" fill="#fff"/>
      <path id="Path_351" data-name="Path 351" d="M146.263,22.449v5.289H144.5V20.2h1.665v.881a2.747,2.747,0,0,1,1.175-.784A2.608,2.608,0,0,1,148.516,20a2.018,2.018,0,0,1,1.665.686,2.824,2.824,0,0,1,.588,1.861v5.093h-1.763v-4.9a1.2,1.2,0,0,0-.294-.881.964.964,0,0,0-.784-.294,2.86,2.86,0,0,0-.881.2C146.949,22.057,146.655,22.155,146.263,22.449Z" transform="translate(-124.324 -1.979)" fill="#fff"/>
      <path id="Path_352" data-name="Path 352" d="M158.972,22.842v4.8h-1.665v-.784a2.984,2.984,0,0,1-.979.686,2.608,2.608,0,0,1-1.175.294,2.3,2.3,0,0,1-1.665-.588,2.224,2.224,0,0,1-.588-1.567,2.363,2.363,0,0,1,.686-1.665,3.108,3.108,0,0,1,1.959-.588h1.665v-.392a1.759,1.759,0,0,0-.294-1.077,1.575,1.575,0,0,0-1.077-.294,3.332,3.332,0,0,0-.979.1,10.984,10.984,0,0,0-1.273.49L153,20.884a6.261,6.261,0,0,1,1.567-.588,7.561,7.561,0,0,1,1.469-.2,2.858,2.858,0,0,1,2.155.686A2.468,2.468,0,0,1,158.972,22.842Zm-4.407,2.742a.763.763,0,0,0,.294.686.964.964,0,0,0,.784.294,1.845,1.845,0,0,0,.784-.2,1.523,1.523,0,0,0,.784-.588V24.7h-1.567a1.266,1.266,0,0,0-.784.2A.763.763,0,0,0,154.565,25.585Z" transform="translate(-124.497 -1.981)" fill="#fff"/>
      <path id="Path_353" data-name="Path 353" d="M167.164,22.538a2.508,2.508,0,0,1-.784,1.861,3.532,3.532,0,0,1-2.155.686h-.784a3.261,3.261,0,0,0-.588.294.509.509,0,0,0-.2.392c0,.1.1.2.2.294a.734.734,0,0,0,.49.1H165.3a2.908,2.908,0,0,1,1.763.49,1.914,1.914,0,0,1,.686,1.469,2.382,2.382,0,0,1-1.077,1.959,4.777,4.777,0,0,1-2.742.784,4.177,4.177,0,0,1-2.351-.588,1.727,1.727,0,0,1-.881-1.469,1.58,1.58,0,0,1,.294-.881,1.426,1.426,0,0,1,.881-.588c-.294-.1-.392-.294-.588-.588a.932.932,0,0,1-.2-.686,1.58,1.58,0,0,1,.294-.881,2.357,2.357,0,0,1,.784-.588,1.742,1.742,0,0,1-.686-.784,2.089,2.089,0,0,1-.294-1.175,2.508,2.508,0,0,1,.784-1.861,3.006,3.006,0,0,1,2.155-.686,1.452,1.452,0,0,1,.686.1,2.491,2.491,0,0,1,.686.2l2.155-.784.49,1.469-1.371.392c.1.2.294.392.294.588A1.992,1.992,0,0,1,167.164,22.538Zm-4.212,5.093c-.2.1-.392.2-.392.392a.734.734,0,0,0-.1.49.656.656,0,0,0,.392.686,2.089,2.089,0,0,0,1.175.294A3,3,0,0,0,165.5,29.2a.918.918,0,0,0,.588-.784.748.748,0,0,0-.2-.49,1.141,1.141,0,0,0-.686-.2h-2.155c0-.1,0-.1-.1-.1Zm0-5.093a1.2,1.2,0,0,0,.294.881,1.779,1.779,0,0,0,1.959,0,1.469,1.469,0,0,0,0-1.763,1.779,1.779,0,0,0-1.959,0A1.2,1.2,0,0,0,162.953,22.538Z" transform="translate(-124.657 -1.97)" fill="#fff"/>
      <path id="Path_354" data-name="Path 354" d="M174.881,25.879l.588,1.371a4.92,4.92,0,0,1-1.273.49,7.683,7.683,0,0,1-1.371.2,3.357,3.357,0,0,1-2.742-.979,4.111,4.111,0,0,1-.881-2.84,4.568,4.568,0,0,1,.881-2.938A2.89,2.89,0,0,1,172.53,20.1a2.95,2.95,0,0,1,2.253.881,3.22,3.22,0,0,1,.784,2.449v.588l-.49.588h-4.114a1.643,1.643,0,0,0,.588,1.371,1.937,1.937,0,0,0,1.371.49,3.332,3.332,0,0,0,.979-.1C174.2,26.172,174.587,26.074,174.881,25.879Zm-2.351-4.309a1.338,1.338,0,0,0-1.077.392,2.18,2.18,0,0,0-.49,1.273H173.9a1.662,1.662,0,0,0-.392-1.273,1.031,1.031,0,0,0-.979-.392Z" transform="translate(-124.832 -1.981)" fill="#fff"/>
      <path id="Path_355" data-name="Path 355" d="M179.263,22.449v5.289H177.5V20.2h1.665v.881a2.747,2.747,0,0,1,1.175-.784A2.233,2.233,0,0,1,181.418,20a2.089,2.089,0,0,1,1.175.294,2.312,2.312,0,0,1,.784.881,4.98,4.98,0,0,1,1.273-.881A2.711,2.711,0,0,1,185.923,20a2.018,2.018,0,0,1,1.665.686,2.651,2.651,0,0,1,.588,1.861v5.093h-1.763v-4.9a1.956,1.956,0,0,0-.2-.881.762.762,0,0,0-.686-.294,2.736,2.736,0,0,0-1.665.784v5.289h-1.959v-4.9a1.956,1.956,0,0,0-.2-.881.763.763,0,0,0-.686-.294,2.305,2.305,0,0,0-.784.2,8.471,8.471,0,0,0-.979.686Z" transform="translate(-125.003 -1.979)" fill="#fff"/>
      <path id="Path_356" data-name="Path 356" d="M195.781,25.879l.588,1.371a4.92,4.92,0,0,1-1.273.49,7.683,7.683,0,0,1-1.371.2,3.357,3.357,0,0,1-2.742-.979,4.111,4.111,0,0,1-.881-2.84,4.568,4.568,0,0,1,.881-2.938A2.89,2.89,0,0,1,193.43,20.1a2.951,2.951,0,0,1,2.253.881,3.22,3.22,0,0,1,.784,2.449v.588l-.49.588h-4.114a1.644,1.644,0,0,0,.588,1.371,1.938,1.938,0,0,0,1.371.49,3.332,3.332,0,0,0,.979-.1A9.1,9.1,0,0,1,195.781,25.879Zm-2.449-4.309a1.338,1.338,0,0,0-1.077.392,2.18,2.18,0,0,0-.49,1.273H194.7a1.662,1.662,0,0,0-.392-1.273c-.1-.294-.49-.392-.979-.392Z" transform="translate(-125.263 -1.981)" fill="#fff"/>
      <path id="Path_357" data-name="Path 357" d="M200.163,22.449v5.289H198.4V20.2h1.665v.881a2.746,2.746,0,0,1,1.175-.784A2.608,2.608,0,0,1,202.416,20a2.018,2.018,0,0,1,1.665.686,2.651,2.651,0,0,1,.588,1.861v5.093h-1.763v-4.9a1.2,1.2,0,0,0-.294-.881.964.964,0,0,0-.784-.294,2.86,2.86,0,0,0-.881.2C200.751,22.057,200.457,22.155,200.163,22.449Z" transform="translate(-125.433 -1.979)" fill="#fff"/>
      <path id="Path_358" data-name="Path 358" d="M209.336,20.159h2.253v1.469h-2.253v3.526a1.517,1.517,0,0,0,.2.784,1.141,1.141,0,0,0,.686.2,1.242,1.242,0,0,0,.588-.1,1.392,1.392,0,0,0,.588-.2l.49,1.371A3.479,3.479,0,0,1,211,27.6a3.332,3.332,0,0,1-.979.1,2.1,2.1,0,0,1-1.763-.686,2.651,2.651,0,0,1-.588-1.861V21.53H206.3V20.257l1.469-.2.392-1.861h1.273l-.1,1.959Z" transform="translate(-125.596 -1.942)" fill="#fff"/>
      <path id="Path_359" data-name="Path 359" d="M126.277,33.6v9.7H125.2V33.6Z" transform="translate(-123.927 -2.259)" fill="#fff"/>
      <path id="Path_360" data-name="Path 360" d="M130.277,37.859v5.485H129.2V36.1h1.077v.979a7.545,7.545,0,0,1,1.273-.881,2.711,2.711,0,0,1,1.273-.294,1.928,1.928,0,0,1,1.567.588,2.394,2.394,0,0,1,.588,1.763v5H133.9v-5a1.575,1.575,0,0,0-.294-1.077,1.136,1.136,0,0,0-.979-.392,2.232,2.232,0,0,0-1.077.294,5.553,5.553,0,0,0-1.273.784Z" transform="translate(-124.009 -2.306)" fill="#fff"/>
      <path id="Path_361" data-name="Path 361" d="M142,41.485a1.762,1.762,0,0,1-.686,1.469,2.556,2.556,0,0,1-1.763.588,5.732,5.732,0,0,1-1.273-.2A3.035,3.035,0,0,1,137,42.758l.392-.881a5.85,5.85,0,0,0,1.077.588,4.165,4.165,0,0,0,1.077.2,1.462,1.462,0,0,0,.979-.294,1.018,1.018,0,0,0,.392-.784.889.889,0,0,0-.294-.686,4.514,4.514,0,0,0-1.273-.686,5.6,5.6,0,0,1-1.665-.979,1.561,1.561,0,0,1-.392-1.175,1.762,1.762,0,0,1,.686-1.469A2.394,2.394,0,0,1,139.742,36a4.916,4.916,0,0,1,1.175.2,3.621,3.621,0,0,1,1.077.49l-.49.881a2.933,2.933,0,0,0-.979-.392,2.712,2.712,0,0,0-.881-.1,1.462,1.462,0,0,0-.979.294.991.991,0,0,0-.392.686.889.889,0,0,0,.294.686,4.514,4.514,0,0,0,1.273.686,4.49,4.49,0,0,1,1.665.979,1.264,1.264,0,0,1,.49,1.077Z" transform="translate(-124.17 -2.308)" fill="#fff"/>
      <path id="Path_362" data-name="Path 362" d="M145.649,36.061H148.1v.881h-2.449v4.309a1.462,1.462,0,0,0,.294.979.964.964,0,0,0,.784.294,1.242,1.242,0,0,0,.588-.1,3.554,3.554,0,0,0,.686-.294l.392.784a3.479,3.479,0,0,1-.881.392,2.712,2.712,0,0,1-.881.1,2.068,2.068,0,0,1-1.567-.588,2.131,2.131,0,0,1-.49-1.665V36.942H143.2v-.686l1.371-.2.294-1.861h.784v1.861Z" transform="translate(-124.297 -2.271)" fill="#fff"/>
      <path id="Path_363" data-name="Path 363" d="M151.471,33.986a.669.669,0,1,1-.2-.49A.748.748,0,0,1,151.471,33.986ZM150.2,36.042h1.077V43.29H150.2Z" transform="translate(-124.439 -2.252)" fill="#fff"/>
      <path id="Path_364" data-name="Path 364" d="M155.449,36.061H157.9v.881h-2.449v4.309a1.462,1.462,0,0,0,.294.979.964.964,0,0,0,.784.294,1.242,1.242,0,0,0,.588-.1,3.554,3.554,0,0,0,.686-.294l.392.784a3.479,3.479,0,0,1-.881.392,2.711,2.711,0,0,1-.881.1,2.068,2.068,0,0,1-1.567-.588,2.131,2.131,0,0,1-.49-1.665V36.942H153v-.686l1.371-.2.294-1.861h.784v1.861Z" transform="translate(-124.499 -2.271)" fill="#fff"/>
      <path id="Path_365" data-name="Path 365" d="M160,41V36h1.077v5a1.575,1.575,0,0,0,.294,1.077,1.136,1.136,0,0,0,.979.392,2.554,2.554,0,0,0,1.077-.294,7.306,7.306,0,0,0,1.175-.686V36h1.077v7.248H164.6v-.979a3.731,3.731,0,0,1-1.273.784,2.608,2.608,0,0,1-1.175.294,1.928,1.928,0,0,1-1.567-.588A2.112,2.112,0,0,1,160,41Z" transform="translate(-124.643 -2.308)" fill="#fff"/>
      <path id="Path_366" data-name="Path 366" d="M169.949,36.061H172.4v.881h-2.449v4.309a1.462,1.462,0,0,0,.294.979.964.964,0,0,0,.784.294,1.242,1.242,0,0,0,.588-.1,3.555,3.555,0,0,0,.686-.294l.392.784a3.478,3.478,0,0,1-.881.392,2.711,2.711,0,0,1-.881.1,2.068,2.068,0,0,1-1.567-.588,2.131,2.131,0,0,1-.49-1.665V36.942H167.5v-.686l1.371-.2.294-1.861h.784v1.861Z" transform="translate(-124.797 -2.271)" fill="#fff"/>
      <path id="Path_367" data-name="Path 367" d="M179.485,41.97l.392.784a3.269,3.269,0,0,1-1.175.49,5.781,5.781,0,0,1-1.371.2,2.856,2.856,0,0,1-2.449-.979A4.576,4.576,0,0,1,174,39.718a4.669,4.669,0,0,1,.784-2.84,2.982,2.982,0,0,1,4.309-.294,3.574,3.574,0,0,1,.784,2.351v.588l-.294.392h-4.505a2.494,2.494,0,0,0,.588,1.861,2.3,2.3,0,0,0,1.665.588,4.018,4.018,0,0,0,1.077-.1A1.974,1.974,0,0,0,179.485,41.97Zm-2.351-5.093a1.644,1.644,0,0,0-1.371.588,3.719,3.719,0,0,0-.588,1.763H179a2.45,2.45,0,0,0-.392-1.665,1.538,1.538,0,0,0-1.469-.686Z" transform="translate(-124.931 -2.304)" fill="#fff"/>
    </g>
    <path id="Path_368" data-name="Path 368" d="M95.8,9.6V35.75a8.913,8.913,0,0,0,17.825,0V15.085" transform="translate(-1.972 -0.189)" fill="#fff"/>
    <path id="Path_369" data-name="Path 369" d="M11.6,13,22.374,39.248A8.939,8.939,0,0,0,38.926,32.49L31.58,14.665" transform="translate(-0.239 -0.259)" fill="#fff"/>
    <path id="Path_370" data-name="Path 370" d="M28.138,5.983a8.939,8.939,0,1,0-4.9,11.655c2.351-.979,8.227-3.33,10.088,1.175Z" transform="translate(-0.225 0)" fill="#fff"/>
    <path id="Path_371" data-name="Path 371" d="M89.8,15a4.459,4.459,0,0,0-2.253,1.273L75.3,19.6V35.862a8.913,8.913,0,1,0,17.825,0V20.387C93.125,18.526,91.558,15,89.8,15Z" transform="translate(-1.55 -0.3)" fill="#fff"/>
    <path id="Path_372" data-name="Path 372" d="M45.23,15.386c-1.763,0-3.33-1.469-3.33.392V35.856a8.913,8.913,0,1,0,17.825,0V26.649L47.483,14.994C46.7,14.211,45.622,15.386,45.23,15.386Z" transform="translate(-0.862 -0.294)" fill="#fff"/>
    <path id="Path_373" data-name="Path 373" d="M41.9,21.362a3.365,3.365,0,0,1,3.33-3.33,3.307,3.307,0,0,1,2.253.881l12.243,13.32.686.686a5.91,5.91,0,0,0,.784.784,8.9,8.9,0,0,0,5.583,2.351h.784A8.685,8.685,0,0,0,73.143,33.7l.784-.784.686-.686,12.243-13.32a3.327,3.327,0,0,1,5.583,2.449V9.413A8.977,8.977,0,0,0,89.6,2.851a8.844,8.844,0,0,0-12.537.588L67.267,14.114,57.473,3.439a8.849,8.849,0,0,0-12.537-.588A8.427,8.427,0,0,0,42.1,9.413Z" transform="translate(-0.862 -0.002)" fill="#fff"/>
    <path id="Path_374" data-name="Path 374" d="M104.713.5a8.913,8.913,0,1,0,0,17.825c2.546,0,8.913.2,8.913,4.9V9.413A8.882,8.882,0,0,0,104.713.5Z" transform="translate(-1.972 -0.001)" fill="#fff"/>
  </g>
</svg>
