<svg xmlns="http://www.w3.org/2000/svg" width="439.684" height="439.689" viewBox="0 0 439.684 439.689">
  <g id="Group_348" data-name="Group 348" transform="translate(-6550.851 -1560)">
    <path id="Path_4641" data-name="Path 4641" d="M-4.145-250.762c-37.321.714-65.41,17.6-85.2,48.91-2.487,3.936-4.556,8.138-6.778,12.238-1.687,3.115-1.7,3.207-4.9,1.362-8.57-4.952-17.626-7.822-27.672-7.523a44.853,44.853,0,0,0-43.751,42.349c-.169,2.923-.3,5.855-.26,8.781.034,2.372-1.006,3.372-3.294,3.8-7.367,1.381-14.668,2.959-21.638,5.922-48.091,20.445-59.3,85.144-20.823,120.489,5.75,5.283,11.768,10.175,19.036,13.273,1.958.835,1.98,1.661.3,2.983-5.311,4.172-6.437,4.325-12.091.649-20.307-13.2-33.906-31.352-38.027-55.361-7.637-44.491,19.448-81.574,55.617-92.933a71.569,71.569,0,0,1,8.7-2.454c1.984-.355,2.55-1.332,2.773-3.051.705-5.439,1.4-10.871,3.19-16.112,10.9-31.964,44.622-44.8,72.917-33.264,1.5.611,3.249,2.147,4.353,1.756,1.149-.407,1.615-2.654,2.45-4.053,19.135-32.054,46.64-52.433,84.1-56.218C42.7-265.064,90.3-228.585,103.371-176.567a117.332,117.332,0,0,1,3.445,23.3c.1,2.183.647,3,3.1,3.184,25.781,1.942,47.326,12.386,62.969,33.243a79.031,79.031,0,0,1,15.85,56.55c-2.668,27.881-16.8,48.573-40.073,63.454-4.074,2.6-8.613,1.726-11.781-2.037-1.13-1.342.192-1.554.818-1.951,3.628-2.3,7.449-4.328,10.929-6.831C172.067-24.512,182.6-47.529,179.508-76.1c-3.034-28.045-18.644-47.46-44.016-59.109-9.6-4.408-20-5.7-30.483-6.179-7.274-.329-7.2-.279-7.37-7.5-1.037-44.394-22.138-75.691-62.058-94.5C24.8-248.47,11.376-250.627-4.145-250.762Z" transform="translate(6801.387 1819.833)" fill="#fff"/>
    <path id="Subtraction_2" data-name="Subtraction 2" d="M59.35,155.149a4.864,4.864,0,0,1-2.685-.979C38.432,142.052,19.862,129.8,1.47,117.751a2.959,2.959,0,0,1-1.238-1.43A4.886,4.886,0,0,1,0,114.558c.014-9.58.013-19.321.012-28.741v-.029q0-4.148,0-8.3,0-4.115,0-8.231c0-9.448,0-19.217-.014-28.836,0-1.331.1-2.342,1.435-3.222,6.731-4.436,13.541-8.986,20.127-13.387C32.771,16.328,44.361,8.584,55.9,1.175a5.236,5.236,0,0,1,6.581-.024C74.428,8.786,86.431,16.768,98.038,24.488l0,0c6.288,4.182,12.79,8.506,19.208,12.725a3.04,3.04,0,0,1,1.46,2.935c-.028,24.416-.028,49.542,0,74.68a2.984,2.984,0,0,1-1.476,2.911c-21.69,14.228-39.226,25.8-55.188,36.424A4.875,4.875,0,0,1,59.35,155.149ZM10.267,50.551a1.156,1.156,0,0,0-.5.113c-1.106.529-1.02,1.994-.944,3.287.02.347.039.674.038.981-.054,9-.093,18.137-.13,26.975v.054c-.038,9.139-.078,18.589-.136,27.884a3.015,3.015,0,0,0,1.626,2.852c8.774,5.779,17.681,11.677,26.294,17.38l.009.006c5.167,3.421,10.51,6.959,15.809,10.461a5.229,5.229,0,0,0,1.937,1.021c.253,0,.394-.178.471-.6a12.377,12.377,0,0,0,.093-1.924c.034-6.866.028-13.841.022-20.586,0-2.6,0-5.291,0-7.969h.179c0-2.311,0-4.661,0-6.934v-.106c-.005-6.96-.011-14.157.034-21.241a3.457,3.457,0,0,0-1.716-3.362c-8.336-5.466-16.786-11.057-24.959-16.464l-.052-.034c-4.861-3.216-9.887-6.541-14.834-9.8-.313-.206-.63-.465-.965-.74A4.3,4.3,0,0,0,10.267,50.551Zm98.975-.2a3.19,3.19,0,0,0-1.847.784c-.123.088-.25.178-.375.261-5,3.3-10.082,6.651-15,9.9L92,61.309c-8.8,5.807-17.892,11.812-26.865,17.7a3.052,3.052,0,0,0-1.5,2.927c.051,10.138.088,20.447.124,30.415v.005c.032,8.822.064,17.944.107,26.916a4.929,4.929,0,0,1-.046.581c-.077.658-.157,1.339.52,1.593a.516.516,0,0,0,.179.03,3.567,3.567,0,0,0,1.511-.734l.012-.008.192-.128c5.382-3.553,10.851-7.169,16.141-10.666l.049-.032c8.556-5.657,17.4-11.506,26.131-17.254a2.789,2.789,0,0,0,1.51-2.622c-.048-6.563-.036-13.237-.023-19.69v0c.023-12.158.046-24.729-.335-37.091-.006-.195,0-.4,0-.59A3.965,3.965,0,0,0,109.242,50.353ZM59.11,9.763c-.184.105-.36.2-.53.3-.345.19-.671.37-.977.573-2.554,1.7-5.152,3.418-7.665,5.08C38.576,23.228,26.826,31,15.723,39.305c-1.312.982-1.943,1.475-1.928,1.958s.726.982,2.086,1.876c5.022,3.3,10.134,6.649,15.077,9.886l0,0,.016.01C39.645,58.713,48.607,64.582,57.39,70.4a3.465,3.465,0,0,0,1.906.672,4.042,4.042,0,0,0,2.243-.857c7.019-4.618,14.165-9.3,21.076-13.828l.025-.017.03-.02c6.535-4.282,13.293-8.71,19.932-13.076,1.469-.966,2.236-1.5,2.25-2.031s-.71-1.088-2.1-2.111C91.517,30.856,79.663,23.067,68.2,15.535l-.037-.024c-2.429-1.6-4.94-3.246-7.405-4.874a10,10,0,0,0-1.119-.609C59.463,9.942,59.283,9.854,59.11,9.763Z" transform="translate(6711.355 1619.652)" fill="#fff"/>
    <path id="Path_4643" data-name="Path 4643" d="M76.921,495.082c-.909-.4-1.759-.733-2.563-1.149C57.937,485.462,42.041,476.05,26,466.9,14.01,460.056,2.06,453.14-9.906,446.254c-2.517-1.449-2.527-1.679-.21-3.508,4.886-3.858,4.9-3.886,10.37-.767Q36.584,462.7,72.869,483.51c2.819,1.623,4.985,1.764,7.926.058,24.518-14.22,49.144-28.25,73.734-42.345,3.339-1.914,8.609-.49,10.5,2.916.822,1.481-.666,1.628-1.392,2.051q-12.567,7.309-25.178,14.539c-18.87,10.834-37.629,21.864-56.844,32.086C80.087,493.627,78.5,494.323,76.921,495.082Z" transform="translate(6693.824 1504.607)" fill="#fff"/>
    <path id="Path_4644" data-name="Path 4644" d="M-100.592,99.26q0-6.585,0-13.169a8.726,8.726,0,0,1,4.3-7.733c10.957-7.33,22.5-13.672,33.856-20.325,7.573-4.436,15.227-8.735,22.785-13.2,1.683-.993,1.982-.671,2.271,1.148.764,4.811-.735,8.12-5.128,10.625C-58.15,65.531-73.623,74.75-89.235,83.727A4.572,4.572,0,0,0-91.9,88.439c.153,7.866.026,15.737.086,23.606.012,1.587-.17,2.39-2.116,2.547-6.992.566-6.985.663-6.985-6.273V99.26Z" transform="translate(6733.965 1682.798)" fill="#fff"/>
    <path id="Path_4645" data-name="Path 4645" d="M347.226,99.138c0,4.481-.067,8.965.037,13.444.036,1.56-.42,1.967-1.972,1.994-7.176.125-7.166.177-7.139-6.937.025-6.676-.062-13.355.1-20.028a3.957,3.957,0,0,0-2.392-4.035q-24.764-14.128-49.443-28.4c-2.491-1.433-4.507-7.95-3.326-10.614.794-1.792,1.771-.674,2.618-.186q9.028,5.2,18.015,10.467c12.059,7.074,24.221,13.967,36.179,21.22,5.075,3.078,7.7,6.925,7.246,12.933-.256,3.365-.046,6.764-.046,10.147Z" transform="translate(6561.093 1683.117)" fill="#fff"/>
    <path id="Path_4649" data-name="Path 4649" d="M-73.287,268.232c0-11.991-.066-23.982.06-35.971a4.815,4.815,0,0,0-2.522-4.609q-26.579-17.516-53.034-35.219c-2.573-1.731-4.7-2.114-7.2-.311-.591.426-1.261.741-1.879,1.132-17.164,10.859-33.857,22.427-50.739,33.71A6.714,6.714,0,0,0-191.874,233c-.807,24.159-.252,48.324-.517,72.484a2.988,2.988,0,0,0,1.543,2.872q28.245,18.729,56.41,37.58a2.523,2.523,0,0,0,3.363-.069q27.921-18.719,55.929-37.306a3.7,3.7,0,0,0,1.9-3.533C-73.32,292.762-73.287,280.5-73.287,268.232Zm-64.075,32.912h-.052c0,9.512.021,19.025-.013,28.537-.01,2.906-.1,2.943-2.642,1.388-14.269-8.742-28.01-18.292-42.014-27.439a2.536,2.536,0,0,1-1.37-2.4c.154-18.658-.251-37.319.29-55.973.142-4.875.337-4.92,4.391-2.217,13.234,8.823,26.431,17.7,39.678,26.507a3.5,3.5,0,0,1,1.766,3.337C-137.4,282.3-137.362,291.722-137.362,301.143Zm2.167-39.769q-21.17-13.753-41.821-28.269c-1.954-1.373-1.587-2.051.126-3.229q20.573-14.15,41.493-27.778a3.734,3.734,0,0,1,4.669-.044c14.5,9.083,28.678,18.636,42.8,28.285.521.356.983.8,1.811,1.48-7.826,5.253-15.313,10.333-22.857,15.328-7.168,4.746-14.428,9.352-21.569,14.139A3.637,3.637,0,0,1-135.195,261.374Zm52.359,39.744a3.253,3.253,0,0,1-1.48,2.94q-20.823,13.749-41.563,27.623a13.744,13.744,0,0,1-1.438.735,7.466,7.466,0,0,1-.7-3.842c-.486-18.746-.282-37.495-.354-56.243a2.821,2.821,0,0,1,1.434-2.681c13.975-9.189,27.744-18.691,41.931-27.558,1.166-.729,2.465-1.876,2.5.883C-82.255,262.358-81.512,281.743-82.836,301.117Z" transform="translate(6775.187 1616.715)" fill="#fff"/>
    <path id="Path_4650" data-name="Path 4650" d="M393.676,267.782h-.2q0-18.527.015-37.054a3.469,3.469,0,0,0-1.645-3.394q-27.912-18.461-55.7-37.108c-1.419-.952-2.321-.748-3.607.112Q304.707,208.925,276.8,227.4a3.9,3.9,0,0,0-2.069,3.716q.1,36.644.008,73.287a3.692,3.692,0,0,0,1.895,3.525q28,18.573,55.915,37.288a2.693,2.693,0,0,0,3.588.01q27.8-18.628,55.7-37.1a3.717,3.717,0,0,0,1.871-3.558C393.645,292.3,393.676,280.042,393.676,267.782ZM328.75,331.5c-1.1.52-2.505-1.156-3.7-1.956q-19.853-13.25-39.685-26.53a2.82,2.82,0,0,1-1.553-2.6c.019-19.306-.345-38.613.082-57.919a2.546,2.546,0,0,1,.552-2.072c2.267,1.372,4.631,2.705,6.9,4.19q18.353,12.031,36.675,24.11a3.249,3.249,0,0,1,1.824,3.028c-.108,18.483-.119,36.967-.212,55.45C329.618,328.7,330.142,330.842,328.75,331.5Zm3.171-70.883c-14.1-9.184-28.152-18.447-42.031-27.965-.665-.457-1.28-.988-2.121-1.643,2.316-1.632,4.438-3.209,6.639-4.665Q313.4,213.779,332.42,201.25c1.222-.808,2.193-1.152,3.66-.205,14.451,9.323,28.767,18.845,42.868,28.689a21.045,21.045,0,0,1,1.678,1.5c-4.507,3.1-8.831,6.136-13.224,9.071-10.113,6.759-20.284,13.432-30.371,20.228C335.212,261.757,333.857,261.879,331.921,260.617Zm51.5,42.577c-13.8,8.952-27.311,18.349-41.326,26.973-3.089,1.9-3.16,1.877-3.166-1.593q-.047-28.26-.059-56.521a2.832,2.832,0,0,1,1.264-2.766q21.826-14.465,43.6-29.008a5.354,5.354,0,0,1,1.136-.213c0,3.31,0,6.407,0,9.5q.042,25.105.106,50.21C384.98,301.218,384.815,302.287,383.416,303.194Z" transform="translate(6564.701 1617.32)" fill="#fff"/>
  </g>
</svg>
