<svg xmlns="http://www.w3.org/2000/svg" width="440.01" height="238.902" viewBox="0 0 440.01 238.902">
  <g id="Group_342" data-name="Group 342" transform="translate(-908.323 -445)">
    <path id="Path_2645" data-name="Path 2645" d="M370.558,191.744c2.807-4.2,5.467-8.179,9.088-13.6,6.821,12.191,13.066,23.355,19.957,35.674H358.645c2.55-5.151,4.81-9.716,7.333-14.81-14.745-6.846-29.941-8.24-45.381-6.994-48.7,3.93-89.182,42.838-94.928,90.872-5.88,49.178,22.741,95.547,69.029,111.826,66.195,23.282,135.551-23.847,139.025-94.08.627-12.653,2.092-25.588,5.532-37.723,12.61-44.48,57.625-82.257,115.648-78.275,48.325,3.319,91.33,41.43,100.761,90.549,15.367,80.023-58.226,149.384-137.245,129.352-3.581-.907-7.159-1.809-11.081-2.8l-7.694,15.311c-8.369-11.128-16.162-21.489-25.07-33.334,14.5-1.866,27.29-3.515,41.38-5.329-1.963,5.668-3.491,10.081-5.35,15.451,11.55,5.9,24.187,7.044,36.7,6.841,49.406-.8,90.777-35.645,100.747-84.2,11.281-54.94-24.458-110.145-79.177-122.306-55.638-12.364-111.693,22.163-124.513,77.1-2.028,8.693-2.5,17.831-2.951,26.8-2.683,52.632-35.606,94.019-85.053,106.573-72.907,18.511-143.35-40.112-138.409-115.183,4.777-72.594,73.812-120.772,143.736-100.305C364.527,189.991,367.37,190.817,370.558,191.744Zm8.743.657-8.4,14.474h16.137C384.479,202.087,382.338,198.08,379.3,192.4Zm118.96,209.987,6.476-15c-6.144.733-10.575,1.261-16.166,1.927,1.974,3.028,2.872,4.585,3.948,6.008C494.042,397.337,495.7,399.252,498.261,402.388Z" transform="translate(690.621 266.852)" fill="#fff"/>
    <path id="Path_2646" data-name="Path 2646" d="M383.931,219.41c1.773-3.536,3.951-6.636,4.932-10.077,2.73-9.551,9.361-10.805,18.183-11.038,9.255-.241,12.653,4.634,15.262,11.864,1.108,3.071,2.741,5.95,4.465,9.621,4.892-1.627,9.334-2.466,13.138-4.5,8.987-4.8,13.614,1.356,19.327,6.374,5.591,4.912,5.873,9.905,2.782,16.02-1.679,3.324-2.944,6.857-4.953,11.613,3.675,1.852,7.166,3.59,10.638,5.365,3.3,1.688,6.581,3.414,9.8,5.09,1.4,7.942,4.014,16.417-.936,22.163-4.264,4.95-12.06,6.859-19.436,10.708,1.345,3.463,2.723,6.787,3.924,10.174,1.234,3.484,2.292,7.031,3.876,11.938l-18.2,14.061c-4.429-1.5-11.685-3.967-19.936-6.769-3.436,6.624-6.821,13.15-10.431,20.106H393.793q-5-9.4-10.781-20.293c-7.189,2.525-13.815,4.853-19.937,7.006-17.739-10.144-18.357-12.31-10.327-36.989-4.434-2.042-8.942-4.431-13.675-6.232-7.635-2.9-7.768-9-7.759-15.7.009-6.478.8-11.909,7.994-14.318,4.513-1.509,8.822-3.628,13.779-5.708-2.579-7.856-4.867-14.817-7.164-21.816,5.408-6.04,9.17-14.14,17-14.438C369.549,213.383,376.327,217.154,383.931,219.41ZM412.044,335.3c2.11-4.8,3.784-8.962,5.749-12.987,3.251-6.658,8.684-8.788,15.69-6.16,4.481,1.679,8.858,3.637,12.067,4.966l11.153-8.041c-1.254-3.942-1.737-5.758-2.412-7.5-.81-2.1-1.877-4.1-2.669-6.2-2.96-7.874-.9-12.8,6.706-16.105,4.068-1.767,8.159-3.475,12.337-5.25.2-2.739.5-4.953.481-7.164s-.377-4.393-.6-6.8c-4.052-1.755-7.818-3.36-11.561-5.011-8.36-3.691-10.383-8.581-7.01-16.861l4.984-12.222c-3.61-3.436-6.566-6.252-9.219-8.777-9.707.465-18.005,11.169-28.17,1.636-2.134-4.925-4.5-10.383-6.965-16.078H398.332l-7.944,17.218-8.734,3.472L363.1,220.024l-8.772,8.423c.823,10.668,11.845,19.063,1.442,28.465-5.426,2.322-10.853,4.641-15.778,6.751V277.2c7.635,5.851,20.325,4.47,20.252,18.1-2.157,5.047-4.488,10.505-6.494,15.2,3.29,4.3,5.99,7.829,8.441,11.033,5.952-2.292,10.1-4.014,14.325-5.492,7.71-2.694,12.847-.411,16.178,7.082,1.8,4.05,3.5,8.145,5.221,12.175Z" transform="translate(833.349 292.153)" fill="#fff"/>
    <path id="Path_2647" data-name="Path 2647" d="M255.075,291.746c-5.232-2.34-9.846-4.616-14.616-6.489-7.777-3.055-6.994-9.585-7.143-16.029-.142-6.1.783-11.132,7.484-13.432,4.531-1.557,8.863-3.689,14.007-5.871l-6.424-20.936c9.118-18.824,21.926-17.825,36.985-8.463,2.432-5.054,4.765-8.82,6.1-12.91,2.845-8.7,9.388-9.181,17.028-9.28,7.335-.093,12.238,2.033,14.727,9.262,1.4,4.079,3.585,7.89,5.544,12.1,8.2-2.606,15.21-4.833,22.91-7.281l14.991,16.6-7.337,20.539c6.712,3.346,13.267,6.615,20.4,10.174v22.736l-20.539,9.923,7.071,19.916c-11.223,17.71-13,18.179-37.45,9.767L318.03,342.2H295.6c-3.369-6.611-6.712-13.177-10.368-20.347-7.369,2.486-14.33,4.837-20.706,6.99C246.192,316.842,246.018,316.2,255.075,291.746Zm58.153,43.49c6.133-7.771,5-20.383,18.551-20.464l17.3,6.733,9.682-9.009c-2-5.007-3.725-9.1-5.286-13.249-2.92-7.762-.756-12.8,6.857-16.1,4.068-1.764,8.168-3.457,12.258-5.183V264.19c-2.466-1.189-4.447-2.216-6.487-3.107-2.064-.9-4.235-1.555-6.272-2.507-6.943-3.245-9.136-8.436-6.406-15.485,1.613-4.167,3.542-8.213,5.828-13.452l-8.714-8.531c-10.659.467-18.971,11.275-29,1.735l-7.1-16.166H300.383c-2.829,5.975-5.53,11.683-8.188,17.3l-8.678,3.38L267.1,220.765l-10.837,7.985c.871,10.248,11.3,18.113,2.013,27.788L241.6,263.781v13.714c5.968,2.626,11.735,5.162,17.47,7.685l3.61,8.6-7.4,17.822c3.6,3.427,6.791,6.466,9.625,9.163,20.327-6.3,20.327-6.3,28.027-1.7,2.315,5.449,4.628,10.9,6.87,16.173Z" transform="translate(710.219 292.21)" fill="#fff"/>
    <path id="Path_2650" data-name="Path 2650" d="M414.379,248.172a32.432,32.432,0,0,1-31.651,32.939c-17.985.429-33.161-14.643-33.045-32.822a32.349,32.349,0,0,1,64.7-.117Zm-7.161.235c-.074-13.7-11.627-25.259-25.153-25.18a25.22,25.22,0,0,0-24.916,25.32A24.955,24.955,0,0,0,382.2,273.614,25.233,25.233,0,0,0,407.217,248.407Z" transform="translate(856.424 314.506)" fill="#fff"/>
    <path id="Path_2651" data-name="Path 2651" d="M316.391,248.78a32.373,32.373,0,1,1-31.775-32.7A32.15,32.15,0,0,1,316.391,248.78Zm-57.24-.5a25.018,25.018,0,1,0,50.033.433c.09-13.671-11.331-25.361-24.887-25.469A25.178,25.178,0,0,0,259.151,248.279Z" transform="translate(733.265 314.495)" fill="#fff"/>
  </g>
</svg>
