<svg xmlns="http://www.w3.org/2000/svg" width="383.828" height="440" viewBox="0 0 383.828 440">
  <g id="Group_347" data-name="Group 347" transform="translate(-2470.132 2600.741)">
    <path id="Path_2676" data-name="Path 2676" d="M2848.429-2390.365c-5.367-1.61-9.66,2.152-9.667,8.521-.026,27.122-.062,54.243.054,81.363.013,3.038-.722,3.982-3.849,3.89-7.91-.234-15.845-.354-23.743.034-4.1.2-4.712-1.216-4.707-4.9q.161-105.992.079-211.985a12.452,12.452,0,0,0-.011-1.758c-.353-2.445.86-2.944,3.055-2.886,4.981.132,9.968.019,14.953.039,9.511.038,14.149,4.767,14.151,14.417q.008,34.3.016,68.609c.007,5.516,2.892,8.833,7.527,8.865,4.692.032,7.627-3.237,7.634-8.723.027-23.749.084-47.5-.018-71.248-.058-13.493-9.345-24.286-22.72-26.786-5.82-1.087-11.7-.383-17.548-.491-7.006-.128-7.12-.033-7.014-7.2.153-10.278-4.327-17.417-14.031-20.945-1.856-.675-2.081-1.631-2.069-3.206.037-5.131.056-10.262,0-15.393-.123-11.736-8.49-20.435-20.114-20.5q-34.087-.194-68.176-.006c-11.751.059-20.068,8.515-20.288,20.306-.094,5.129-.018,10.262-.015,15.393,0,1.483.024,2.655-1.923,3.344-10.389,3.673-14.337,11.457-14.325,22.136q.132,118.527.049,237.053a27,27,0,0,0,.018,3.077c.244,2.114-.606,2.762-2.713,2.717-6.009-.126-12.044-.363-18.025.063-4.3.306-5.186-1-5.178-5.2q.22-110.827.095-221.655a27.629,27.629,0,0,0-.309-5.682c-1.988-9.367-10.632-13.454-20.5-9.735-8.179,3.083-16.326,6.25-24.881,9.532,0-8.264.02-16.017-.007-23.769-.019-5.764-2.958-9.335-7.61-9.336-4.677,0-7.581,3.493-7.6,9.287-.036,8.8-.016,17.592,0,26.387,0,1.75.225,3.321-2.082,4.172-9.44,3.482-18.8,7.17-28.625,10.948,0-10.228,0-20.026,0-29.823,0-14.22.037-28.44-.024-42.661-.026-5.792-3.507-9.154-8.626-8.595-4.321.472-6.748,3.675-6.763,9.215-.04,15.247-.083,30.494.047,45.739.024,2.78-.614,3.768-3.568,3.767-9.527,0-19.052.361-28.58.484-19.812.255-30.654,11.134-30.656,30.893q-.011,113.03,0,226.059c0,19.641,11.074,30.671,30.8,30.674q65.536.012,131.073-.078c3.261-.009,4.155.721,4.1,4.049-.218,12.6-.17,25.215-.027,37.821.032,2.876-.748,3.757-3.695,3.71-11.14-.175-22.285-.009-33.427-.091a45.156,45.156,0,0,0-28.878,9.964c-5.08,3.965-10.256,7.817-15.2,11.949a10.2,10.2,0,0,1-7.184,2.4c-11.874-.11-23.751-.088-35.626-.023-5.238.028-8.435,2.9-8.566,7.418-.138,4.725,3.1,7.771,8.506,7.981.878.034,1.759.006,2.639.006h294.7c1.026,0,2.055.042,3.078-.01,5.1-.261,8.2-3.263,8.157-7.862-.044-4.541-3.2-7.448-8.418-7.534-5.57-.09-11.142-.007-16.714-.025-7.621-.026-15.852,1.712-22.691-.62-6.817-2.325-12.239-8.743-18.274-13.364q-.873-.668-1.762-1.315a44.408,44.408,0,0,0-27.012-8.948c-11,.03-22-.148-32.986.089-3.537.076-4.779-.671-4.7-4.468q.372-18.465-.007-36.939c-.077-3.644,1.161-4.183,4.4-4.175q66.415.149,132.832.045c17.033-.024,28.643-11.75,28.673-28.771q.05-28.147.008-56.294c0-17.006-.044-34.012.019-51.018C2853.967-2386.1,2852.571-2389.124,2848.429-2390.365ZM2697.1-2565.907c.23-4.523.077-9.067.062-13.6-.013-3.94,1.852-5.957,5.868-5.954q33.141.019,66.28-.012c4.011-.006,5.956,2,6.026,5.877.078,4.388-.171,8.789.091,13.163.18,3.021-.63,3.98-3.8,3.926-11.848-.2-23.7-.08-35.552-.08s-23.7-.092-35.553.068C2697.808-2562.487,2696.958-2563.17,2697.1-2565.907Zm-15.933,26.226c0-6.44,1.243-7.69,7.668-7.692q47.494-.01,94.989,0c6.084,0,7.536,1.427,7.537,7.47q.019,59.8.005,119.6c0,39.722-.054,79.444.086,119.165.012,3.619-.8,4.576-4.515,4.558q-50.792-.243-101.585-.008c-3.482.014-4.273-.927-4.268-4.327Q2681.234-2420.3,2681.164-2539.682Zm-139.189,46.9c26.315-10.114,52.66-20.151,78.925-30.4,3.267-1.275,3.853-.764,3.819,2.574-.144,13.775-.17,27.554.007,41.329.041,3.191-.989,3.94-3.968,3.777-4.531-.248-9.086-.135-13.628-.046-4.794.095-7.941,3.141-7.966,7.52s3.089,7.489,7.88,7.612c4.687.12,9.393.246,14.066-.039,3.091-.188,3.723,1.024,3.587,3.759a98.066,98.066,0,0,0,.014,11.426c.211,3.126-.481,4.478-3.993,4.195-4.369-.353-8.789-.124-13.186-.066-5.137.067-8.319,3-8.346,7.574-.026,4.533,3.115,7.478,8.326,7.6,4.542.1,9.092.16,13.629-.014,2.57-.1,3.733.508,3.583,3.356-.222,4.239-.2,8.5-.017,12.745.116,2.6-.9,3.2-3.3,3.115-4.538-.165-9.087-.1-13.63-.031-5.431.078-8.664,3.09-8.557,7.842.1,4.611,3.138,7.314,8.48,7.4,4.543.073,9.091.127,13.63-.024,2.342-.077,3.475.411,3.359,3.08-.19,4.388-.155,8.8.02,13.186.095,2.379-.788,3.005-3.038,2.93-4.54-.15-9.087-.094-13.631-.037-5.5.069-8.781,2.941-8.84,7.623-.06,4.723,3.174,7.679,8.656,7.765,4.69.074,9.383.1,14.071-.02,2.128-.055,2.81.71,2.754,2.793-.122,4.541-.135,9.089-.007,13.628.062,2.2-.862,2.725-2.865,2.681q-7.032-.155-14.07-.01c-5.366.1-8.686,3.238-8.56,7.9.122,4.469,3.385,7.377,8.554,7.468,4.4.079,8.8.152,13.19-.028,2.671-.11,3.938.362,3.8,3.509-.271,6.291-.245,12.606-.013,18.9.112,3.019-.97,3.628-3.759,3.6-14.217-.129-28.435-.06-42.653-.058-13.925,0-27.85-.094-41.774.076-3.057.037-4.015-.733-3.889-3.845.249-6.146.27-12.318-.009-18.46-.147-3.236,1-3.841,3.949-3.742,6.589.22,13.19.1,19.786.06,5.78-.032,9.192-2.905,9.224-7.675.031-4.736-3.388-7.668-9.206-7.72-6.888-.062-13.779-.082-20.667.041-2.2.04-3.151-.466-3.053-2.883.179-4.39.211-8.8-.007-13.186-.134-2.685.985-3.105,3.317-3.06,6.887.131,13.779.091,20.666.035,5.51-.044,8.863-2.908,8.962-7.5.1-4.766-3.358-7.85-9.034-7.895-6.889-.055-13.78-.107-20.667.045-2.413.053-3.367-.513-3.243-3.109.21-4.387.189-8.8.01-13.186-.1-2.4.8-2.948,3.025-2.909,7.033.121,14.07.088,21.106.031,5.512-.045,8.833-2.959,8.809-7.567-.024-4.655-3.354-7.632-8.781-7.68-6.889-.061-13.78-.116-20.666.038-2.533.057-3.7-.385-3.516-3.3a115.27,115.27,0,0,0,.02-12.744c-.119-2.562.8-3.231,3.247-3.181,6.886.142,13.778.106,20.666.038,5.644-.055,8.927-2.817,9.013-7.386.093-4.853-3.269-7.8-9.018-7.819-6.889-.028-13.784-.174-20.665.073-2.965.107-3.354-1.067-3.241-3.55a111.535,111.535,0,0,0-.01-11.867c-.185-2.98.59-4.076,3.8-3.958,6.88.253,13.776.123,20.664.049,5.2-.056,8.439-2.964,8.512-7.444.075-4.6-3.354-7.68-8.691-7.708-7.036-.039-14.074-.119-21.105.05-2.53.062-3.141-.748-3.182-3.2C2532.48-2489.085,2532.389-2489.1,2541.974-2492.785Zm-56.659,90q0-50.131,0-100.262c0-10.236,4.331-14.827,14.508-15.112,9.962-.278,19.933-.294,29.9-.582,2.414-.07,3.581.507,3.173,3.076a5.527,5.527,0,0,0,0,1.755c.979,5.711-.519,9.277-6.818,11.132s-8.6,7.331-8.588,13.846q.092,42.876.025,85.751c0,34.007-.062,68.014.091,102.021.017,3.671-.927,4.7-4.57,4.575-7.906-.277-15.835-.275-23.742.005-3.42.121-4.061-.984-4.049-4.183C2485.36-2334.771,2485.314-2368.778,2485.315-2402.785Zm238.19,217.516a32.913,32.913,0,0,1,23.521,8.884H2577.194c6.373-5.836,13.228-8.8,21.279-8.821,14.357-.032,28.712,0,43.068-.014,7.238-.009,9.8-2.559,9.808-9.749.015-15.526.091-31.053-.062-46.578-.032-3.226.491-4.716,4.18-4.4a88.349,88.349,0,0,0,13.172.016c3.2-.207,4.2.594,4.157,4-.209,15.524-.1,31.052-.088,46.578.005,7.528,2.525,10.118,9.927,10.131C2696.26-2185.2,2709.885-2185.068,2723.506-2185.269Zm115.334-91.264c-.267,10.932-4.589,15.464-15.539,15.465q-161.381.007-322.764.066c-11.44.011-16.312-6.672-15.244-18.456.119-1.318.624-1.827,1.877-1.792,1.025.029,2.052,0,3.078,0h171.935q85.968,0,171.935-.1C2838.076-2281.359,2838.933-2280.324,2838.84-2276.533Z" transform="translate(0 0)" fill="#fff"/>
    <path id="Path_2677" data-name="Path 2677" d="M2767.643-2356.6c-10.4,0-20.8.031-31.2-.015-5.469-.024-8.782-2.942-8.811-7.585s3.267-7.562,8.771-7.568q31.642-.041,63.285,0c5.323.006,8.43,2.73,8.542,7.3.117,4.767-3.1,7.819-8.5,7.847C2789.031-2356.564,2778.337-2356.6,2767.643-2356.6Z" transform="translate(-30.924 -27.496)" fill="#fff"/>
    <path id="Path_2678" data-name="Path 2678" d="M2767.64-2474.314c-10.255,0-20.511.034-30.765-.014-5.955-.028-9.2-2.775-9.206-7.6s3.3-7.6,9.181-7.608q31.2-.02,62.409,0c5.622,0,8.82,2.66,8.973,7.366.159,4.914-3.025,7.8-8.949,7.841C2788.736-2474.264,2778.188-2474.314,2767.64-2474.314Z" transform="translate(-30.929 -13.354)" fill="#fff"/>
    <path id="Path_2679" data-name="Path 2679" d="M2802.224-2298.061c-3.357,0-6.72.12-10.07-.029-4.65-.208-7.923-3.484-7.911-7.67.012-4.205,3.266-7.557,7.931-7.668,6.855-.163,13.723-.183,20.577.026a7.412,7.412,0,0,1,7.581,7.889c-.1,4.213-3.023,7.191-7.6,7.417C2809.236-2297.921,2805.726-2298.061,2802.224-2298.061Z" transform="translate(-37.723 -34.49)" fill="#fff"/>
    <path id="Path_2680" data-name="Path 2680" d="M2739.379-2313.479c3.357,0,6.717-.111,10.069.021,5.032.2,8.24,3.345,8.185,7.823-.053,4.427-3.323,7.483-8.4,7.565q-9.63.153-19.264,0c-5.045-.082-8.371-3.171-8.448-7.567-.078-4.526,3.394-7.7,8.662-7.82C2733.249-2313.532,2736.315-2313.475,2739.379-2313.479Z" transform="translate(-30.191 -34.494)" fill="#fff"/>
    <path id="Path_2681" data-name="Path 2681" d="M2802.208-2415.521c-3.517,0-7.04.133-10.549-.033a7.511,7.511,0,0,1-7.406-7.671,7.464,7.464,0,0,1,7.666-7.42c7.032-.125,14.071-.147,21.1.007a7.237,7.237,0,0,1,7.3,7.678,7.171,7.171,0,0,1-7.119,7.386c-3.653.191-7.325.039-10.989.039Z" transform="translate(-37.724 -20.416)" fill="#fff"/>
    <path id="Path_2682" data-name="Path 2682" d="M2739.587-2430.675c3.517,0,7.038-.1,10.551.028a7.407,7.407,0,0,1,7.481,7.548,7.308,7.308,0,0,1-7.463,7.547q-10.547.226-21.1,0a7.514,7.514,0,0,1-7.57-7.539,7.647,7.647,0,0,1,7.552-7.562C2732.548-2430.786,2736.069-2430.677,2739.587-2430.675Z" transform="translate(-30.186 -20.419)" fill="#fff"/>
  </g>
</svg>
