<svg xmlns="http://www.w3.org/2000/svg" width="214.885" height="50.61" viewBox="0 0 214.885 50.61">
  <g id="Group_307" data-name="Group 307" transform="translate(-0.5 -6.144)">
    <path id="Path_334" data-name="Path 334" d="M4.868,9.5H28.583a4.368,4.368,0,0,1,4.369,4.368h0a4.368,4.368,0,0,1-4.369,4.368H4.868A4.368,4.368,0,0,1,.5,13.868h0A4.368,4.368,0,0,1,4.868,9.5Z" transform="translate(0 0.833)" fill="#fff"/>
    <path id="Path_335" data-name="Path 335" d="M12.868,35.5H36.583a4.368,4.368,0,0,1,4.369,4.368h0a4.368,4.368,0,0,1-4.369,4.368H12.868A4.368,4.368,0,0,1,8.5,39.868h0A4.368,4.368,0,0,1,12.868,35.5Z" transform="translate(1.985 7.284)" fill="#fff"/>
    <path id="Path_336" data-name="Path 336" d="M23.868,22.5H47.583a4.369,4.369,0,0,1,4.369,4.369h0a4.368,4.368,0,0,1-4.369,4.368H23.868A4.368,4.368,0,0,1,19.5,26.868h0A4.368,4.368,0,0,1,23.868,22.5Z" transform="translate(4.715 4.059)" fill="#fff"/>
    <path id="Path_337" data-name="Path 337" d="M35.868,9.5h3.744a4.369,4.369,0,0,1,4.369,4.368h0a4.369,4.369,0,0,1-4.369,4.368H35.868A4.368,4.368,0,0,1,31.5,13.868h0A4.368,4.368,0,0,1,35.868,9.5Z" transform="translate(7.692 0.833)" fill="#fff"/>
    <path id="Path_338" data-name="Path 338" d="M43.868,35.5h3.744a4.368,4.368,0,0,1,4.368,4.368h0a4.368,4.368,0,0,1-4.368,4.368H43.868A4.368,4.368,0,0,1,39.5,39.868h0A4.368,4.368,0,0,1,43.868,35.5Z" transform="translate(9.678 7.284)" fill="#fff"/>
    <path id="Path_339" data-name="Path 339" d="M8.868,22.5h3.744a4.368,4.368,0,0,1,4.369,4.369h0a4.368,4.368,0,0,1-4.369,4.368H8.868A4.368,4.368,0,0,1,4.5,26.868h0A4.368,4.368,0,0,1,8.868,22.5Z" transform="translate(0.993 4.059)" fill="#fff"/>
    <path id="Path_340" data-name="Path 340" d="M65.216,29.055h4.608V7.41H65.216Zm19.387,0h4.121V17.989c0-3.05-1.655-5-5.095-5a7.177,7.177,0,0,0-5.484,2.434V13.381H74.024V29.055h4.121V18.508a4.464,4.464,0,0,1,3.57-1.85c1.752,0,2.888.746,2.888,2.921Zm18.987,0h4.154V7.41H103.59v7.983a6.037,6.037,0,0,0-4.835-2.4c-3.992,0-6.945,3.115-6.945,8.243,0,5.225,2.986,8.21,6.945,8.21a6.085,6.085,0,0,0,4.835-2.4Zm0-5.062a4.484,4.484,0,0,1-3.57,1.785c-2.337,0-3.959-1.85-3.959-4.543,0-2.726,1.623-4.576,3.959-4.576a4.484,4.484,0,0,1,3.57,1.785Zm18.821,5.062h4.121V13.381h-4.121V23.992a4.614,4.614,0,0,1-3.57,1.785c-1.752,0-2.888-.714-2.888-2.888V13.381h-4.121V24.512c0,3.05,1.623,4.933,5.062,4.933a7.336,7.336,0,0,0,5.517-2.369Zm7.207-7.853a7.958,7.958,0,0,0,8.308,8.243,7.224,7.224,0,0,0,6.2-2.856l-2.693-2.5a3.956,3.956,0,0,1-3.31,1.687c-2.5,0-4.251-1.85-4.251-4.576s1.752-4.543,4.251-4.543a3.8,3.8,0,0,1,3.31,1.687l2.693-2.531a7.294,7.294,0,0,0-6.2-2.823A7.951,7.951,0,0,0,129.618,21.2Zm22.458,8.243a5.088,5.088,0,0,0,3.44-1.006l-.876-3.115a2.251,2.251,0,0,1-1.428.454c-.909,0-1.428-.746-1.428-1.72V16.983h3.18v-3.6h-3.18V9.1H147.63v4.284h-2.6v3.6h2.6v8.178C147.63,27.952,149.187,29.444,152.076,29.444Zm7.752-18.368a2.466,2.466,0,1,0-2.466-2.466A2.465,2.465,0,0,0,159.828,11.077Zm-2.044,17.978H161.9V13.381h-4.121Zm15.477.389a7.955,7.955,0,0,0,8.308-8.243,8.292,8.292,0,0,0-16.583,0A7.946,7.946,0,0,0,173.26,29.444Zm0-3.667c-2.564,0-3.992-2.109-3.992-4.576,0-2.434,1.428-4.543,3.992-4.543s4.024,2.109,4.024,4.543C177.284,23.668,175.824,25.777,173.26,25.777Zm21.945,3.278h4.121V17.989c0-3.05-1.655-5-5.095-5a7.177,7.177,0,0,0-5.484,2.434V13.381h-4.121V29.055h4.121V18.508a4.464,4.464,0,0,1,3.57-1.85c1.752,0,2.888.746,2.888,2.921Z" transform="translate(16.059)" fill="#fff"/>
    <path id="Path_341" data-name="Path 341" d="M73.9,49.148h2.337V35.828H73.9V41.28h-6.93V35.828H64.636v13.32h2.337V43.337H73.9Zm5.1-4.833a4.85,4.85,0,0,0,5.054,5.072,5.627,5.627,0,0,0,3.914-1.4l-.96-1.378a4.08,4.08,0,0,1-2.736,1.058A2.922,2.922,0,0,1,81.2,45.014h7.45v-.5c0-3.035-1.857-5.252-4.753-5.252A4.876,4.876,0,0,0,79.007,44.315ZM83.9,40.98a2.579,2.579,0,0,1,2.715,2.556H81.185A2.661,2.661,0,0,1,83.9,40.98Zm13.313,8.168h2.1v-6.39c0-2.6-1.877-3.495-4.014-3.495a5.736,5.736,0,0,0-4.054,1.558l.859,1.458a3.95,3.95,0,0,1,2.856-1.218c1.338,0,2.257.679,2.257,1.8V44.3A3.987,3.987,0,0,0,94.1,43.057a3.106,3.106,0,0,0-3.355,3.135,3.2,3.2,0,0,0,3.355,3.2,4.072,4.072,0,0,0,3.115-1.278Zm0-2.2a2.824,2.824,0,0,1-2.3,1,1.754,1.754,0,1,1,0-3.455,2.824,2.824,0,0,1,2.3,1Zm5.414,2.2h2.1V35.828h-2.1Zm8.311.24a2.766,2.766,0,0,0,1.977-.619l-.5-1.578a1.354,1.354,0,0,1-.939.339c-.6,0-.919-.479-.919-1.138V41.34h1.957V39.5H110.56V36.866h-2.1V39.5h-1.6V41.34h1.6v5.572A2.224,2.224,0,0,0,110.94,49.388Zm10.612-.24h2.1v-6.83c0-1.977-1.038-3.055-3.115-3.055a4.61,4.61,0,0,0-3.415,1.558V35.828h-2.1v13.32h2.1v-6.73a3.241,3.241,0,0,1,2.476-1.3c1.178,0,1.957.459,1.957,1.957Zm4.819-4.833a4.846,4.846,0,0,0,4.993,5.072,4.325,4.325,0,0,0,3.695-1.717l-1.378-1.278a2.622,2.622,0,0,1-2.217,1.138,2.929,2.929,0,0,1-2.916-3.215,2.912,2.912,0,0,1,2.916-3.2,2.575,2.575,0,0,1,2.217,1.138l1.378-1.278a4.325,4.325,0,0,0-3.695-1.717A4.841,4.841,0,0,0,126.37,44.315Zm17.017,4.833h2.1v-6.39c0-2.6-1.877-3.495-4.014-3.495a5.736,5.736,0,0,0-4.054,1.558l.859,1.458a3.95,3.95,0,0,1,2.856-1.218c1.338,0,2.257.679,2.257,1.8V44.3a3.987,3.987,0,0,0-3.115-1.238,3.106,3.106,0,0,0-3.355,3.135,3.2,3.2,0,0,0,3.355,3.2,4.072,4.072,0,0,0,3.115-1.278Zm0-2.2a2.824,2.824,0,0,1-2.3,1,1.754,1.754,0,1,1,0-3.455,2.824,2.824,0,0,1,2.3,1Zm5.414,2.2h2.1v-6.57a3.331,3.331,0,0,1,2.476-1.278,3.091,3.091,0,0,1,.659.06V39.283A4.119,4.119,0,0,0,150.9,40.92V39.5h-2.1Zm6.922-4.833a4.849,4.849,0,0,0,5.052,5.072,5.62,5.62,0,0,0,3.914-1.4l-.959-1.378A4.08,4.08,0,0,1,161,47.67a2.922,2.922,0,0,1-3.075-2.656h7.45v-.5c0-3.035-1.857-5.252-4.753-5.252A4.875,4.875,0,0,0,155.724,44.315Zm4.894-3.335a2.58,2.58,0,0,1,2.716,2.556H157.9A2.661,2.661,0,0,1,160.618,40.98Z" transform="translate(15.915 7.366)" fill="#fff"/>
  </g>
</svg>
