<svg xmlns="http://www.w3.org/2000/svg" width="440.001" height="440.901" viewBox="0 0 440.001 440.901">
  <g id="Group_346" data-name="Group 346" transform="translate(-9571.771 -7549)">
    <path id="Path_2658" data-name="Path 2658" d="M560.107,216.11a20.191,20.191,0,0,0-19.841,17.427l-4.684,35.547v0a25.783,25.783,0,0,0-5.442-2.962,26.314,26.314,0,0,0-32.654,11.64l-14.465,26.111a90.459,90.459,0,0,1-28.246,25.35A89.455,89.455,0,0,0,439.2,341.145c-29.347,28.312-27.555,63.171-26.866,79.914v5.648a13.768,13.768,0,0,0-7.371,4.269,13.306,13.306,0,0,0-3.238,10.472l4.408,35.27a13.37,13.37,0,0,0,13.571,11.713H497.9a13.368,13.368,0,0,0,13.365-13.365V439.8A13.368,13.368,0,0,0,497.9,426.431h-3.926a17.7,17.7,0,0,1,8.541-12.607c20.117-10.057,77.639-48.635,77.639-92.315V236.161a20.043,20.043,0,0,0-20.047-20.047ZM497.485,474.657H420.052L415.3,440.21l82.19-.412Zm68.893-153.144c0,33.618-48.224,68.889-70.059,79.98l0,0a31.754,31.754,0,0,0-16.052,23.973,4.459,4.459,0,0,0,0,.964H426.186v-5.718c-.688-15.845-2.068-45.4,22.734-69.371a72.875,72.875,0,0,1,13.089-9.991,104.789,104.789,0,0,0,32.655-29.622l14.6-26.318a13.3,13.3,0,0,1,11.161-6.889A12.2,12.2,0,0,1,532.9,290.375l-1.859,14.192a24.119,24.119,0,0,1-6.889,13.777l-10.267,10.267A50.89,50.89,0,0,0,499.417,357.2a6.957,6.957,0,0,0,13.777,1.928,37.482,37.482,0,0,1,10.539-20.666L534,328.2a37.747,37.747,0,0,0,10.815-21.836l9.162-71.027a6.214,6.214,0,0,1,12.4.828Z" transform="translate(9431.617 7501.465)" fill="#fff"/>
    <path id="Path_2659" data-name="Path 2659" d="M437.249,517.418a6.2,6.2,0,1,0-6.134-6.131,6.134,6.134,0,0,0,6.134,6.131Z" transform="translate(9426.07 7447.126)" fill="#fff"/>
    <path id="Path_2660" data-name="Path 2660" d="M247.128,426.374v-5.648c.758-16.739,2.41-51.6-26.866-79.844a84.694,84.694,0,0,0-15.639-11.989,90.134,90.134,0,0,1-28.173-25.35l-14.465-26.178h0a26.311,26.311,0,0,0-32.654-11.642,24.405,24.405,0,0,0-5.442,2.962l-4.478-35.2a19.978,19.978,0,0,0-39.819,2.689v85.284c0,43.675,57.523,82.255,77.64,92.315v0a17.768,17.768,0,0,1,8.475,12.607h-3.857a13.362,13.362,0,0,0-13.365,13.365v35.271a13.362,13.362,0,0,0,13.365,13.365h78.188a13.771,13.771,0,0,0,13.295-11.712l4.478-35.271a13.281,13.281,0,0,0-3.238-10.472,13.767,13.767,0,0,0-7.44-4.545Zm-83.774-24.938c-21.906-10.954-69.99-46.365-69.99-79.983V236.1a6.2,6.2,0,0,1,6.2-6.27,6.272,6.272,0,0,1,6.2,5.442l9.369,70.475a37.752,37.752,0,0,0,10.815,21.839l10.263,10.263a37.6,37.6,0,0,1,10.608,20.666,6.958,6.958,0,0,0,13.78-1.928A51.115,51.115,0,0,0,146.133,328l-10.4-10.127a24.139,24.139,0,0,1-6.889-13.777l-1.928-13.777v0a12.257,12.257,0,0,1,10.127-11.709,13.295,13.295,0,0,1,13.777,6.889l14.123,25.626.412.618v0a104.591,104.591,0,0,0,32.588,29.622,68.486,68.486,0,0,1,13.089,9.987c24.868,23.973,23.492,53.526,22.734,69.371v5.718l-54.354,0v-.967a31.962,31.962,0,0,0-16.054-24.04ZM240.03,474.6H162.184V440.15l81.841-.412Z" transform="translate(9492.188 7501.521)" fill="#fff"/>
    <path id="Path_2661" data-name="Path 2661" d="M261,517.418a6.2,6.2,0,1,0-6.2-6.131,6.129,6.129,0,0,0,6.2,6.131Z" transform="translate(9459.232 7447.126)" fill="#fff"/>
    <path id="Path_2662" data-name="Path 2662" d="M335.637,84.848a62,62,0,1,0,43.84,18.16,62,62,0,0,0-43.84-18.16Zm0,110.226a48.224,48.224,0,1,1,34.1-14.123A48.219,48.219,0,0,1,335.637,195.074Z" transform="translate(9455.689 7526.153)" fill="#fff"/>
    <path id="Path_2663" data-name="Path 2663" d="M390.506,230.792a6.885,6.885,0,0,0,8.68-.894l19.5-19.5a6.893,6.893,0,0,0,.894-8.68l-14.465-21.7a96.83,96.83,0,0,0,9.093-21.905l25.557-4.96a6.892,6.892,0,0,0,5.512-6.889V118.709a6.887,6.887,0,0,0-5.512-6.889l-25.559-5.1h0a96.809,96.809,0,0,0-9.093-21.909L419.577,63.6a6.893,6.893,0,0,0-.894-8.68l-19.5-19.838a6.889,6.889,0,0,0-8.68-.9l-21.7,14.468a96.721,96.721,0,0,0-21.909-9.1L341.937,14a6.887,6.887,0,0,0-6.889-5.512H307.494A6.887,6.887,0,0,0,300.605,14l-5.1,25.559,0,0a96.96,96.96,0,0,0-21.769,9.1L252.382,34.181a6.889,6.889,0,0,0-8.68.9l-19.842,19.5a6.886,6.886,0,0,0-.894,9.023l14.465,21.7a96.791,96.791,0,0,0-9.093,21.909l-25.557,4.615a6.887,6.887,0,0,0-5.512,6.889v27.557a6.891,6.891,0,0,0,5.512,6.889l25.559,5.1h0a96.844,96.844,0,0,0,9.093,21.905l-14.465,21.7v0a6.889,6.889,0,0,0,.894,8.678l19.5,19.5v0a6.893,6.893,0,0,0,8.68.894l21.7-14.465v0a96.723,96.723,0,0,0,21.909,9.1l4.96,25.42a6.884,6.884,0,0,0,6.889,5.509h27.555a6.884,6.884,0,0,0,6.889-5.509l5.1-25.559h0a96.845,96.845,0,0,0,21.906-9.093Zm-50.979-17.7a6.884,6.884,0,0,0-5.3,5.373L329.4,242.71H313.143l-4.821-24.25h0a6.884,6.884,0,0,0-5.3-5.373,83.992,83.992,0,0,1-25.835-10.745,6.885,6.885,0,0,0-7.507,0L249.008,216.12l-11.5-11.5,13.777-20.666,0,0a6.89,6.89,0,0,0,0-7.51,83.843,83.843,0,0,1-10.745-25.832,6.892,6.892,0,0,0-5.376-5.306l-24.11-4.684V124.359l24.25-4.821a6.892,6.892,0,0,0,5.373-5.306A83.9,83.9,0,0,1,251.419,88.4a6.89,6.89,0,0,0,0-7.51L237.641,60.224l11.5-11.5L269.81,62.5a6.9,6.9,0,0,0,7.51,0,83.905,83.905,0,0,1,25.7-10.612,6.88,6.88,0,0,0,5.3-5.373l4.824-24.25H329.4l4.821,24.25h0a6.88,6.88,0,0,0,5.3,5.373,84,84,0,0,1,25.835,10.748,6.885,6.885,0,0,0,7.507,0l20.666-13.777,11.5,11.5L391.26,81.026l0,0a6.885,6.885,0,0,0,0,7.507,83.9,83.9,0,0,1,10.745,25.835,6.888,6.888,0,0,0,5.376,5.3l24.25,4.821v16.257l-24.25,4.821v0a6.892,6.892,0,0,0-5.376,5.306,83.865,83.865,0,0,1-10.745,25.832,6.89,6.89,0,0,0,0,7.51l13.777,20.666-11.5,11.5-20.666-13.777h0a6.9,6.9,0,0,0-7.507,0,83.946,83.946,0,0,1-25.835,10.472Z" transform="translate(9470.053 7540.517)" fill="#fff"/>
  </g>
</svg>
