<svg xmlns="http://www.w3.org/2000/svg" width="422.076" height="440" viewBox="0 0 422.076 440">
  <g id="Group_344" data-name="Group 344" transform="translate(-2358.772 2116.521)">
    <path id="Path_2654" data-name="Path 2654" d="M2592.652-1944.863a2.428,2.428,0,0,0,1,.37Q2593.167-1944.678,2592.652-1944.863Z" transform="translate(-28.171 -20.676)" fill="#fff"/>
    <path id="Path_2655" data-name="Path 2655" d="M2754.217-1905.832c-4.406-6.553-8.848-13.105-13.43-19.544-2.789-3.923-5.55-3.9-8.365.018-3.324,4.635-6.482,9.4-9.7,14.117-1.486,2.172-3.052,4.3-4.4,6.561s-.677,4.275,1.425,5.717c2.005,1.39,3.949.915,5.532-.749a37.224,37.224,0,0,0,2.577-3.552c1.311-1.777,2.251-3.879,4.257-5.471a9.968,9.968,0,0,1,.238,1.258c.009,41.339.1,82.678-.035,124.016-.062,20.8-15.77,36.317-36.528,36.431-14.662.079-29.315.044-43.978.018-.906,0-2.023.51-2.858-.721.66-1.407,1.319-2.842,2.005-4.266,12.56-26.115,17.741-53.644,14.5-82.4-5.049-44.647-25.876-80.558-61.612-107.762a118.955,118.955,0,0,0-22.666-13.871l.053-.026c-5.453-2.823-16.852-6.975-21.936-8.769-.018-.018-.026-.044-.044-.062-13.589-4.873-27.75-6.7-41.981-7.467-2.462-16.228,9.455-24.592,21.672-24.46,44.558.492,89.125.193,133.691.193h3.721a48.691,48.691,0,0,1-7.2,5.84c-3.017,2.164-3.782,4.785-2.128,6.992,1.539,2.067,4.063,2.216,7.019.22q9.645-6.517,19.192-13.167c3.8-2.656,3.879-5.787.167-8.4q-9.7-6.821-19.561-13.4c-2.859-1.926-5.532-1.609-6.957.572-1.451,2.217-.721,4.635,2.111,6.667,2.524,1.821,5.119,3.562,8.532,5.928h-6.87q-66.625,0-133.251.009c-17.213,0-29.034,11.733-29.157,28.849-.009,1.39.519,2.919-.554,4.169a154.363,154.363,0,0,0-146.1,124.623c-13.281,67.584,21.391,136.647,84.032,167.22,30.767,15.014,63.2,19.271,96.68,12.507,43.705-8.839,77.146-33.036,101.175-70.294,17.547,0,34.839.018,52.14-.009,10.59-.018,20.238-3,28.524-9.684,11.619-9.367,16.931-21.716,16.923-36.519q-.013-59.594.017-119.179c0-1.531-.413-3.14.528-5.05,1.856,2.692,3.527,5.19,5.277,7.627,2.173,3.026,4.284,3.685,6.606,2.164S2756.17-1902.929,2754.217-1905.832Zm-246.062-57.549v64.022h-65.043c-.5-1.337.44-2.419.923-3.562,7.52-17.881,17.319-34.206,32.508-46.73C2485.647-1957.154,2495.911-1962.123,2508.155-1963.381Zm-.115,73.1v66.828h-79.7c.642-22.965,3.773-45.235,11.056-66.828Zm-36.783-66.846c-17.952,15.885-29.412,35.938-37.882,57.909h-41.356C2411.9-1928.032,2438.054-1947.25,2471.257-1957.127Zm-84.709,66.96h43.608a255.326,255.326,0,0,0-7.617,33.053,324.347,324.347,0,0,0-3,33.669h-51.718A143.923,143.923,0,0,1,2386.548-1890.167Zm-18.761,75.782h51.788c.66,22.8,3.712,45.13,10.7,67.136h-43.617C2374.868-1767.752,2368.711-1790.11,2367.787-1814.385Zm24.39,76.344h41.312c8.576,22.078,20.089,42.218,38.4,57.919C2438.626-1689.859,2412.328-1709.147,2392.177-1738.041Zm115.845,63.786c-9.939-.827-18.69-4.486-26.7-10.062-15.489-10.783-25.7-25.788-33.792-42.464a74.137,74.137,0,0,1-4.75-11.39h65.245Zm.15-73.055h-68.781c-7.3-21.479-10.352-43.819-11.082-66.89h79.863Zm149.11-76.151h-51.77c-.6-22.622-3.685-44.822-10.555-66.7h43.635A142.255,142.255,0,0,1,2657.282-1823.462Zm-140-.053v-66.626h68.552c7.124,21.549,10.405,43.7,10.942,66.626Zm68.279,76.266h-68.235v-67.093h78.931C2597.578-1799.846,2592.565-1765.025,2585.563-1747.249Zm-21.083-206.641q.515.185,1,.37c3.1,1.17,5.62,2.208,6.535,2.595.246.106.378.158.378.158a146.752,146.752,0,0,1,60.592,51.418h-41.207c-8.628-22.042-20.186-42.588-39.254-58.147A84.258,84.258,0,0,1,2564.481-1953.891Zm-47.214-9.411a53.072,53.072,0,0,1,23.827,8.268c14.715,9.174,24.821,22.472,33.045,37.39a118.475,118.475,0,0,1,8.391,18.444h-65.263Zm-.088,289.09v-63.9h64.559a.905.905,0,0,1,.317,1.161c-6.825,17.159-15.894,32.921-29.535,45.657C2542.589-1682.023,2531.2-1675.636,2517.179-1674.212Zm36.211-5.981a126.7,126.7,0,0,0,22.763-26.659,170.58,170.58,0,0,0,15.515-31.206h41.286C2612.882-1709.138,2586.575-1689.973,2553.389-1680.193Zm85.088-66.986h-43.555a240.427,240.427,0,0,0,10.563-67.163h51.779A141.89,141.89,0,0,1,2638.477-1747.179Z" transform="translate(0 -11.649)" fill="#fff"/>
    <path id="Path_2656" data-name="Path 2656" d="M2782.295-2021.656a44.265,44.265,0,0,0-44.223,44.123,44.147,44.147,0,0,0,44.211,44.068,44.5,44.5,0,0,0,44.252-44.167A44.1,44.1,0,0,0,2782.295-2021.656Zm16.353,58.45a34.906,34.906,0,0,0-3.512.024c-2.826.287-4.555,2.042-4.5,4.431.058,2.42,1.774,4.056,4.636,4.209,2.191.117,4.392.039,6.588.043,2.006,0,4.012,0,6.167,0-7.219,11.314-26.063,15.666-39.852,9.475-16.418-7.373-25.154-25.773-19.538-42.5h20.382c2.635,0,5.276.092,7.906-.022,3.456-.15,5.33-1.9,5.191-4.629-.131-2.582-1.857-4.01-5.2-4.032-7.906-.052-15.813-.017-23.733-.017,3.851-12.752,25.589-20.41,41.405-14.626,18.973,6.939,28.088,28.223,19.969,47.643Z" transform="translate(-45.687 -11.427)" fill="#fff"/>
    <path id="Path_2657" data-name="Path 2657" d="M2784.494-2116.521c-17.341.061-30.353,16.586-25.471,33.019,4.664,15.7,13.33,29.528,22.04,43.239,1.932,3.041,5.108,2.928,7.283.059a62.479,62.479,0,0,0,3.749-5.933c6.868-11.57,13.84-23.117,17.9-36.051A26.233,26.233,0,0,0,2784.494-2116.521Zm17.237,31.636c-3.915,12.035-10.4,22.8-17.01,34.089-6.7-11.279-13.085-22.083-17.093-34.054-2.5-7.475.319-15.168,6.755-19.727a17.915,17.915,0,0,1,20.594-.008C2801.466-2100.021,2804.2-2092.487,2801.73-2084.885Z" transform="translate(-48.086)" fill="#fff"/>
  </g>
</svg>
