<svg xmlns="http://www.w3.org/2000/svg" width="439.999" height="388.851" viewBox="0 0 439.999 388.851">
  <path id="Path_4640" data-name="Path 4640" d="M139.9,67.227c-16.9,0-30.7,14.119-30.7,31a30.673,30.673,0,0,0,60.918,4.954H255.5c-21.452,8.744-41.846,22.42-59.158,38.834-28.677,27.192-49.183,61.65-51.164,94.133H124.548a5.117,5.117,0,0,0-5.118,5.114v51.143a5.116,5.116,0,0,0,5.118,5.111h51.164a5.116,5.116,0,0,0,5.118-5.111V241.265a5.12,5.12,0,0,0-4.158-5.114,5.386,5.386,0,0,0-.96,0H155.4c2.006-28.419,20.879-61.093,47.966-86.778,27.124-25.721,62.27-44.183,95.129-46.025v20.3a5.117,5.117,0,0,0,5.118,5.114h3.037L227.349,310.784a5.112,5.112,0,0,0,.96,5.592c16.161,16.049,28.448,28.059,36.774,46.506,8.062,17.866,12.67,42.5,12.952,82.942h-15.35a5.383,5.383,0,0,0-.96,0,5.137,5.137,0,1,0,.96,10.229H395.712a5.115,5.115,0,1,0,0-10.229h-15.35c.368-52.8,8.048-78.192,21.424-97.806v0a5.124,5.124,0,1,0-8.473-5.753c-14.686,21.535-22.8,49.69-23.184,103.562H288.265c-.282-41.26-5.014-67.389-13.912-87.1-8.69-19.258-21.285-32.224-36.3-47.146L317.84,128.76h6.235V262.2a30.7,30.7,0,1,0,10.236,0V128.76h6.235l81.221,186.027,0,0a5.117,5.117,0,1,0,9.276-4L351.741,128.761h3.037a5.117,5.117,0,0,0,5.118-5.114v-20.3c32.863,1.842,68.01,20.308,95.129,46.025,27.088,25.685,45.961,58.355,47.966,86.778H482.684a5.389,5.389,0,0,0-.96,0,5.12,5.12,0,0,0-4.158,5.114v51.139a5.119,5.119,0,0,0,5.118,5.114h51.164a5.119,5.119,0,0,0,5.118-5.114V241.267a5.115,5.115,0,0,0-5.118-5.114H513.223c-1.981-32.481-22.488-66.939-51.164-94.133-17.313-16.417-37.706-30.09-59.158-38.834H488.28A30.673,30.673,0,0,0,549.2,98.232c0-16.884-13.8-31-30.7-31A30.953,30.953,0,0,0,488.28,92.957H359.894V72.5a5.12,5.12,0,0,0-4.158-5.114,5.391,5.391,0,0,0-.96,0H303.612a5.117,5.117,0,0,0-5.118,5.114V92.957H170.109a30.953,30.953,0,0,0-30.218-25.732Zm0,10.389A20.518,20.518,0,0,1,160.362,98.23a20.466,20.466,0,0,1-40.928,0A20.515,20.515,0,0,1,139.9,77.616Zm168.842,0h40.932v40.91H308.74Zm209.773,0A20.518,20.518,0,0,1,538.976,98.23a20.466,20.466,0,0,1-40.928,0A20.515,20.515,0,0,1,518.513,77.616ZM129.665,246.375H170.6v40.91H129.665Zm358.149,0h40.932v40.91H487.814ZM329.205,271.946A20.457,20.457,0,1,1,308.742,292.4,20.382,20.382,0,0,1,329.205,271.946Z" transform="translate(-109.198 -67.225)" fill="#fff"/>
</svg>
